<?xml version="1.0" encoding="utf-8"?>
<!-- Generator: Adobe Illustrator 16.0.0, SVG Export Plug-In . SVG Version: 6.00 Build 0)  -->
<!DOCTYPE svg PUBLIC "-//W3C//DTD SVG 1.1//EN" "http://www.w3.org/Graphics/SVG/1.1/DTD/svg11.dtd">
<svg version="1.1" id="Layer_1" xmlns="http://www.w3.org/2000/svg" xmlns:xlink="http://www.w3.org/1999/xlink" x="0px" y="0px"
	 width="792px" height="570px" viewBox="0 0 792 570" enable-background="new 0 0 792 570" xml:space="preserve">
<rect x="47.521" y="91.875" fill-rule="evenodd" clip-rule="evenodd" fill="#FFFFFF" width="99.714" height="34.175"/>
<text transform="matrix(1 0 0 1 82.6802 114.3799)" font-family="'Georgia,Bold'" font-size="15">Sun</text>
<text transform="matrix(1 0 0 1 112.9399 114.3799)" font-family="'Georgia,Bold'" font-size="15"> </text>
<rect x="147.23" y="91.875" fill-rule="evenodd" clip-rule="evenodd" fill="#FFFFFF" width="99.714" height="34.175"/>
<text transform="matrix(1 0 0 1 179.54 114.3799)"><tspan x="0" y="0" font-family="'Georgia,Bold'" font-size="15">M</tspan><tspan x="12.06" y="0" font-family="'Georgia,Bold'" font-size="15">o</tspan><tspan x="20.265" y="0" font-family="'Georgia,Bold'" font-size="15">n</tspan></text>
<text transform="matrix(1 0 0 1 214.7002 114.3799)" font-family="'Georgia,Bold'" font-size="15"> </text>
<rect x="246.95" y="91.875" fill-rule="evenodd" clip-rule="evenodd" fill="#FFFFFF" width="99.714" height="34.175"/>
<text transform="matrix(1 0 0 1 282.4102 114.3799)"><tspan x="0" y="0" font-family="'Georgia,Bold'" font-size="15">Tu</tspan><tspan x="15.78" y="0" font-family="'Georgia,Bold'" font-size="15">e</tspan></text>
<text transform="matrix(1 0 0 1 311.3301 114.3799)" font-family="'Georgia,Bold'" font-size="15"> </text>
<rect x="346.66" y="91.875" fill-rule="evenodd" clip-rule="evenodd" fill="#FFFFFF" width="99.714" height="34.175"/>
<text transform="matrix(1 0 0 1 378.8901 114.3799)" font-family="'Georgia,Bold'" font-size="15">Wed</text>
<text transform="matrix(1 0 0 1 414.29 114.3799)" font-family="'Georgia,Bold'" font-size="15"> </text>
<rect x="446.38" y="91.875" fill-rule="evenodd" clip-rule="evenodd" fill="#FFFFFF" width="99.052" height="34.175"/>
<text transform="matrix(1 0 0 1 480.6699 114.3799)"><tspan x="0" y="0" font-family="'Georgia,Bold'" font-size="15">T</tspan><tspan x="7.485" y="0" font-family="'Georgia,Bold'" font-size="15">hu</tspan></text>
<text transform="matrix(1 0 0 1 511.2695 114.3799)" font-family="'Georgia,Bold'" font-size="15"> </text>
<rect x="545.43" y="91.875" fill-rule="evenodd" clip-rule="evenodd" fill="#FFFFFF" width="99.336" height="34.175"/>
<text transform="matrix(1 0 0 1 583.5098 114.3799)" font-family="'Georgia,Bold'" font-size="15">Fri</text>
<text transform="matrix(1 0 0 1 606.6699 114.3799)" font-family="'Georgia,Bold'" font-size="15"> </text>
<rect x="644.77" y="91.875" fill-rule="evenodd" clip-rule="evenodd" fill="#FFFFFF" width="99.715" height="34.175"/>
<text transform="matrix(1 0 0 1 681.8203 114.3799)"><tspan x="0" y="0" font-family="'Georgia,Bold'" font-size="15">S</tspan><tspan x="7.395" y="0" font-family="'Georgia,Bold'" font-size="15">a</tspan><tspan x="14.564" y="0" font-family="'Georgia,Bold'" font-size="15">t</tspan></text>
<text transform="matrix(1 0 0 1 706.4199 114.3799)" font-family="'Georgia,Bold'" font-size="15"> </text>
<rect x="47.521" y="126.053" fill-rule="evenodd" clip-rule="evenodd" fill="#FFFFFF" width="99.714" height="81.707"/>
<text transform="matrix(1 0 0 1 55.4399 137.7798)" font-family="'Georgia'" font-size="9.24"> </text>
<rect x="147.23" y="126.053" fill-rule="evenodd" clip-rule="evenodd" fill="#FFFFFF" width="99.714" height="81.707"/>
<text transform="matrix(1 0 0 1 154.1001 137.7798)" font-family="'Georgia'" font-size="9.24"> </text>
<rect x="246.95" y="126.053" fill-rule="evenodd" clip-rule="evenodd" fill="#FFFFFF" width="99.714" height="81.707"/>
<text transform="matrix(1 0 0 1 253.8198 137.7798)" font-family="'Georgia'" font-size="9.24"> </text>
<rect x="346.66" y="126.053" fill-rule="evenodd" clip-rule="evenodd" fill="#FFFFFF" width="99.714" height="81.707"/>
<text transform="matrix(1 0 0 1 353.5698 137.7798)" font-family="'Georgia'" font-size="9.24">1</text>
<text transform="matrix(1 0 0 1 357.5298 137.7798)" font-family="'Georgia'" font-size="9.24"> </text>
<rect x="446.38" y="126.053" fill-rule="evenodd" clip-rule="evenodd" fill="#FFFFFF" width="99.052" height="81.707"/>
<text transform="matrix(1 0 0 1 453.3096 137.7798)" font-family="'Georgia'" font-size="9.24">2</text>
<text transform="matrix(1 0 0 1 458.4697 137.7798)" font-family="'Georgia'" font-size="9.24"> </text>
<rect x="545.43" y="126.053" fill-rule="evenodd" clip-rule="evenodd" fill="#FFFFFF" width="99.336" height="81.707"/>
<text transform="matrix(1 0 0 1 552.3096 137.7798)" font-family="'Georgia'" font-size="9.24">3</text>
<text transform="matrix(1 0 0 1 557.3496 137.7798)" font-family="'Georgia'" font-size="9.24"> </text>
<rect x="644.77" y="126.053" fill-rule="evenodd" clip-rule="evenodd" fill="#FFFFFF" width="99.715" height="81.707"/>
<text transform="matrix(1 0 0 1 651.7002 137.7798)" font-family="'Georgia'" font-size="9.24">4</text>
<text transform="matrix(1 0 0 1 656.8604 137.7798)" font-family="'Georgia'" font-size="9.24"> </text>
<rect x="47.521" y="207.753" fill-rule="evenodd" clip-rule="evenodd" fill="#FFFFFF" width="99.714" height="81.707"/>
<text transform="matrix(1 0 0 1 55.4399 219.5298)" font-family="'Georgia'" font-size="9.24">5</text>
<text transform="matrix(1 0 0 1 60.2402 219.5298)" font-family="'Georgia'" font-size="9.24"> </text>
<rect x="147.23" y="207.753" fill-rule="evenodd" clip-rule="evenodd" fill="#FFFFFF" width="99.714" height="81.707"/>
<text transform="matrix(1 0 0 1 154.1001 219.5298)" font-family="'Georgia'" font-size="9.24">6</text>
<text transform="matrix(1 0 0 1 159.2598 219.5298)" font-family="'Georgia'" font-size="9.24"> </text>
<rect x="246.95" y="207.753" fill-rule="evenodd" clip-rule="evenodd" fill="#FFFFFF" width="99.714" height="81.707"/>
<text transform="matrix(1 0 0 1 253.8198 219.5298)" font-family="'Georgia'" font-size="9.24">7</text>
<text transform="matrix(1 0 0 1 258.3799 219.5298)" font-family="'Georgia'" font-size="9.24"> </text>
<rect x="346.66" y="207.753" fill-rule="evenodd" clip-rule="evenodd" fill="#FFFFFF" width="99.714" height="81.707"/>
<text transform="matrix(1 0 0 1 353.5698 219.5298)" font-family="'Georgia'" font-size="9.24">8</text>
<text transform="matrix(1 0 0 1 359.0898 219.5298)" font-family="'Georgia'" font-size="9.24"> </text>
<rect x="446.38" y="207.753" fill-rule="evenodd" clip-rule="evenodd" fill="#FFFFFF" width="99.052" height="81.707"/>
<text transform="matrix(1 0 0 1 453.3096 219.5298)" font-family="'Georgia'" font-size="9.24">9</text>
<text transform="matrix(1 0 0 1 458.4697 219.5298)" font-family="'Georgia'" font-size="9.24"> </text>
<rect x="545.43" y="207.753" fill-rule="evenodd" clip-rule="evenodd" fill="#FFFFFF" width="99.336" height="81.707"/>
<text transform="matrix(1 0 0 1 552.3096 219.5298)"><tspan x="0" y="0" font-family="'Georgia'" font-size="9.24">1</tspan><tspan x="3.961" y="0" font-family="'Georgia'" font-size="9.24">0</tspan></text>
<text transform="matrix(1 0 0 1 561.9102 219.5298)" font-family="'Georgia'" font-size="9.24"> </text>
<rect x="644.77" y="207.753" fill-rule="evenodd" clip-rule="evenodd" fill="#FFFFFF" width="99.715" height="81.707"/>
<text transform="matrix(1 0 0 1 651.7002 219.5298)"><tspan x="0" y="0" font-family="'Georgia'" font-size="9.24">1</tspan><tspan x="3.961" y="0" font-family="'Georgia'" font-size="9.24">1</tspan></text>
<text transform="matrix(1 0 0 1 659.6201 219.5298)" font-family="'Georgia'" font-size="9.24"> </text>
<rect x="47.521" y="289.469" fill-rule="evenodd" clip-rule="evenodd" fill="#FFFFFF" width="99.714" height="81.121"/>
<text transform="matrix(1 0 0 1 55.4399 301.2695)"><tspan x="0" y="0" font-family="'Georgia'" font-size="9.24">1</tspan><tspan x="3.961" y="0" font-family="'Georgia'" font-size="9.24">2</tspan></text>
<text transform="matrix(1 0 0 1 64.5601 301.2695)" font-family="'Georgia'" font-size="9.24"> </text>
<rect x="147.23" y="289.469" fill-rule="evenodd" clip-rule="evenodd" fill="#FFFFFF" width="99.714" height="81.121"/>
<text transform="matrix(1 0 0 1 154.1001 301.2695)"><tspan x="0" y="0" font-family="'Georgia'" font-size="9.24">1</tspan><tspan x="3.961" y="0" font-family="'Georgia'" font-size="9.24">3</tspan></text>
<text transform="matrix(1 0 0 1 163.1001 301.2695)" font-family="'Georgia'" font-size="9.24"> </text>
<rect x="246.95" y="289.469" fill-rule="evenodd" clip-rule="evenodd" fill="#FFFFFF" width="99.714" height="81.121"/>
<text transform="matrix(1 0 0 1 253.8198 301.2695)"><tspan x="0" y="0" font-family="'Georgia'" font-size="9.24">1</tspan><tspan x="3.961" y="0" font-family="'Georgia'" font-size="9.24">4</tspan></text>
<text transform="matrix(1 0 0 1 262.9399 301.2695)" font-family="'Georgia'" font-size="9.24"> </text>
<rect x="346.66" y="289.469" fill-rule="evenodd" clip-rule="evenodd" fill="#FFFFFF" width="99.714" height="81.121"/>
<text transform="matrix(1 0 0 1 353.5698 301.2695)"><tspan x="0" y="0" font-family="'Georgia'" font-size="9.24">1</tspan><tspan x="3.961" y="0" font-family="'Georgia'" font-size="9.24">5</tspan></text>
<text transform="matrix(1 0 0 1 362.3301 301.2695)" font-family="'Georgia'" font-size="9.24"> </text>
<rect x="446.38" y="289.469" fill-rule="evenodd" clip-rule="evenodd" fill="#FFFFFF" width="99.052" height="81.121"/>
<text transform="matrix(1 0 0 1 453.3096 301.2695)"><tspan x="0" y="0" font-family="'Georgia'" font-size="9.24">1</tspan><tspan x="3.961" y="0" font-family="'Georgia'" font-size="9.24">6</tspan></text>
<text transform="matrix(1 0 0 1 462.4297 301.2695)" font-family="'Georgia'" font-size="9.24"> </text>
<rect x="545.43" y="289.469" fill-rule="evenodd" clip-rule="evenodd" fill="#FFFFFF" width="99.336" height="81.121"/>
<text transform="matrix(1 0 0 1 552.3096 301.2695)"><tspan x="0" y="0" font-family="'Georgia'" font-size="9.24">1</tspan><tspan x="3.961" y="0" font-family="'Georgia'" font-size="9.24">7</tspan></text>
<text transform="matrix(1 0 0 1 560.8301 301.2695)" font-family="'Georgia'" font-size="9.24"> </text>
<rect x="644.77" y="289.469" fill-rule="evenodd" clip-rule="evenodd" fill="#FFFFFF" width="99.715" height="81.121"/>
<text transform="matrix(1 0 0 1 651.7002 301.2695)"><tspan x="0" y="0" font-family="'Georgia'" font-size="9.24">1</tspan><tspan x="3.961" y="0" font-family="'Georgia'" font-size="9.24">8</tspan></text>
<text transform="matrix(1 0 0 1 661.1797 301.2695)" font-family="'Georgia'" font-size="9.24"> </text>
<rect x="47.521" y="370.583" fill-rule="evenodd" clip-rule="evenodd" fill="#FFFFFF" width="99.714" height="81.707"/>
<text transform="matrix(1 0 0 1 55.4399 382.3896)"><tspan x="0" y="0" font-family="'Georgia'" font-size="9.24">1</tspan><tspan x="3.961" y="0" font-family="'Georgia'" font-size="9.24">9</tspan></text>
<text transform="matrix(1 0 0 1 64.5601 382.3896)" font-family="'Georgia'" font-size="9.24"> </text>
<rect x="147.23" y="370.583" fill-rule="evenodd" clip-rule="evenodd" fill="#FFFFFF" width="99.714" height="81.707"/>
<text transform="matrix(1 0 0 1 154.1001 382.3896)" font-family="'Georgia'" font-size="9.24">20</text>
<text transform="matrix(1 0 0 1 164.8999 382.3896)" font-family="'Georgia'" font-size="9.24"> </text>
<rect x="246.95" y="370.583" fill-rule="evenodd" clip-rule="evenodd" fill="#FFFFFF" width="99.714" height="81.707"/>
<text transform="matrix(1 0 0 1 253.8198 382.3896)" font-family="'Georgia'" font-size="9.24">21</text>
<text transform="matrix(1 0 0 1 262.9399 382.3896)" font-family="'Georgia'" font-size="9.24"> </text>
<rect x="346.66" y="370.583" fill-rule="evenodd" clip-rule="evenodd" fill="#FFFFFF" width="99.714" height="81.707"/>
<text transform="matrix(1 0 0 1 353.5698 382.3896)" font-family="'Georgia'" font-size="9.24">22</text>
<text transform="matrix(1 0 0 1 363.8901 382.3896)" font-family="'Georgia'" font-size="9.24"> </text>
<rect x="446.38" y="370.583" fill-rule="evenodd" clip-rule="evenodd" fill="#FFFFFF" width="99.052" height="81.707"/>
<text transform="matrix(1 0 0 1 453.3096 382.3896)" font-family="'Georgia'" font-size="9.24">23</text>
<text transform="matrix(1 0 0 1 463.5098 382.3896)" font-family="'Georgia'" font-size="9.24"> </text>
<rect x="545.43" y="370.583" fill-rule="evenodd" clip-rule="evenodd" fill="#FFFFFF" width="99.336" height="81.707"/>
<text transform="matrix(1 0 0 1 552.3096 382.3896)" font-family="'Georgia'" font-size="9.24">24</text>
<text transform="matrix(1 0 0 1 562.6299 382.3896)" font-family="'Georgia'" font-size="9.24"> </text>
<rect x="644.77" y="370.583" fill-rule="evenodd" clip-rule="evenodd" fill="#FFFFFF" width="99.715" height="81.707"/>
<text transform="matrix(1 0 0 1 651.7002 382.3896)" font-family="'Georgia'" font-size="9.24">25</text>
<text transform="matrix(1 0 0 1 661.6602 382.3896)" font-family="'Georgia'" font-size="9.24"> </text>
<rect x="47.521" y="452.293" fill-rule="evenodd" clip-rule="evenodd" fill="#FFFFFF" width="99.714" height="81.707"/>
<text transform="matrix(1 0 0 1 55.4399 464.1396)" font-family="'Georgia'" font-size="9.24">26</text>
<text transform="matrix(1 0 0 1 65.7598 464.1396)" font-family="'Georgia'" font-size="9.24"> </text>
<rect x="147.23" y="452.293" fill-rule="evenodd" clip-rule="evenodd" fill="#FFFFFF" width="99.714" height="81.707"/>
<text transform="matrix(1 0 0 1 154.1001 464.1396)" font-family="'Georgia'" font-size="9.24">27</text>
<text transform="matrix(1 0 0 1 163.8198 464.1396)" font-family="'Georgia'" font-size="9.24"> </text>
<rect x="246.95" y="452.293" fill-rule="evenodd" clip-rule="evenodd" fill="#FFFFFF" width="99.714" height="81.707"/>
<text transform="matrix(1 0 0 1 253.8198 464.1396)" font-family="'Georgia'" font-size="9.24">28</text>
<text transform="matrix(1 0 0 1 264.4102 464.1396)" font-family="'Georgia'" font-size="9.24"> </text>
<rect x="346.66" y="452.293" fill-rule="evenodd" clip-rule="evenodd" fill="#FFFFFF" width="99.714" height="81.707"/>
<text transform="matrix(1 0 0 1 353.5698 464.1396)" font-family="'Georgia'" font-size="9.24">29</text>
<text transform="matrix(1 0 0 1 363.8901 464.1396)" font-family="'Georgia'" font-size="9.24"> </text>
<rect x="446.38" y="452.293" fill-rule="evenodd" clip-rule="evenodd" fill="#FFFFFF" width="99.052" height="81.707"/>
<text transform="matrix(1 0 0 1 453.3096 464.1396)"><tspan x="0" y="0" font-family="'Georgia'" font-size="9.24">3</tspan><tspan x="5.043" y="0" font-family="'Georgia'" font-size="9.24">0</tspan></text>
<text transform="matrix(1 0 0 1 463.9902 464.1396)" font-family="'Georgia'" font-size="9.24"> </text>
<rect x="545.43" y="452.293" fill-rule="evenodd" clip-rule="evenodd" fill="#FFFFFF" width="99.336" height="81.707"/>
<text transform="matrix(1 0 0 1 552.3096 464.1396)" font-family="'Georgia'" font-size="9.24"> </text>
<rect x="644.77" y="452.293" fill-rule="evenodd" clip-rule="evenodd" fill="#FFFFFF" width="99.715" height="81.707"/>
<text transform="matrix(1 0 0 1 651.7002 464.1396)" font-family="'Georgia'" font-size="9.24"> </text>
<rect x="47.521" y="91.871" fill-rule="evenodd" clip-rule="evenodd" fill="#D9D9D9" width="2.28" height="439.88"/>
<rect x="146.11" y="94.121" fill-rule="evenodd" clip-rule="evenodd" fill="#D9D9D9" width="2.28" height="437.63"/>
<rect x="245.82" y="94.121" fill-rule="evenodd" clip-rule="evenodd" fill="#D9D9D9" width="2.28" height="437.63"/>
<rect x="345.54" y="94.121" fill-rule="evenodd" clip-rule="evenodd" fill="#D9D9D9" width="2.28" height="437.63"/>
<rect x="445.25" y="94.121" fill-rule="evenodd" clip-rule="evenodd" fill="#D9D9D9" width="2.28" height="437.63"/>
<rect x="544.3" y="94.121" fill-rule="evenodd" clip-rule="evenodd" fill="#D9D9D9" width="2.28" height="437.63"/>
<rect x="643.64" y="94.121" fill-rule="evenodd" clip-rule="evenodd" fill="#D9D9D9" width="2.28" height="437.63"/>
<rect x="742.2" y="91.871" fill-rule="evenodd" clip-rule="evenodd" fill="#D9D9D9" width="2.28" height="439.88"/>
<rect x="47.521" y="91.88" fill-rule="evenodd" clip-rule="evenodd" fill="#D9D9D9" width="696.96" height="2.28"/>
<rect x="49.771" y="124.93" fill-rule="evenodd" clip-rule="evenodd" fill="#D9D9D9" width="692.46" height="2.28"/>
<rect x="49.771" y="206.63" fill-rule="evenodd" clip-rule="evenodd" fill="#D9D9D9" width="692.46" height="2.28"/>
<rect x="49.771" y="288.34" fill-rule="evenodd" clip-rule="evenodd" fill="#D9D9D9" width="692.46" height="2.28"/>
<rect x="49.771" y="369.46" fill-rule="evenodd" clip-rule="evenodd" fill="#D9D9D9" width="692.46" height="2.28"/>
<rect x="49.771" y="451.17" fill-rule="evenodd" clip-rule="evenodd" fill="#D9D9D9" width="692.46" height="2.28"/>
<rect x="47.521" y="531.721" fill-rule="evenodd" clip-rule="evenodd" fill="#D9D9D9" width="696.96" height="2.28"/>
<rect x="47.52" y="19.35" fill-rule="evenodd" clip-rule="evenodd" fill="#FFFFFF" width="696.96" height="72"/>
<text transform="matrix(1 0 0 1 298.4902 68.1802)" font-family="'Impact'" font-size="48">April 2015</text>
<text transform="matrix(1 0 0 1 493.6299 68.1802)" font-family="'Impact'" font-size="48"> </text>
</svg>
