<?xml version="1.0" encoding="utf-8"?>
<!-- Generator: Adobe Illustrator 16.0.0, SVG Export Plug-In . SVG Version: 6.00 Build 0)  -->
<!DOCTYPE svg PUBLIC "-//W3C//DTD SVG 1.1//EN" "http://www.w3.org/Graphics/SVG/1.1/DTD/svg11.dtd" [
	<!ENTITY ns_flows "http://ns.adobe.com/Flows/1.0/">
	<!ENTITY ns_extend "http://ns.adobe.com/Extensibility/1.0/">
	<!ENTITY ns_ai "http://ns.adobe.com/AdobeIllustrator/10.0/">
	<!ENTITY ns_graphs "http://ns.adobe.com/Graphs/1.0/">
]>
<svg version="1.1" id="Layer_1" xmlns:x="&ns_extend;" xmlns:i="&ns_ai;" xmlns:graph="&ns_graphs;"
	 xmlns="http://www.w3.org/2000/svg" xmlns:xlink="http://www.w3.org/1999/xlink" xmlns:a="http://ns.adobe.com/AdobeSVGViewerExtensions/3.0/"
	 x="0px" y="0px" width="696.961px" height="514.62px" viewBox="0 0 696.961 514.62" enable-background="new 0 0 696.961 514.62"
	 xml:space="preserve">
<rect y="72.48" fill="#FFFFFF" width="99.721" height="28.86"/>
<text transform="matrix(1 0 0 1 41.2192 96.4795)"><tspan x="0" y="0" fill="#006533" font-family="'Interstate-RegularCompressed'" font-size="18">Su</tspan><tspan x="12.275" y="0" fill="#006533" font-family="'Interstate-RegularCompressed'" font-size="18">n</tspan><tspan x="18.449" y="0" fill="#006533" font-family="'Interstate-RegularCompressed'" font-size="18"> </tspan></text>
<rect x="99.721" y="72.48" fill="#FFFFFF" width="99.72" height="28.86"/>
<text transform="matrix(1 0 0 1 139.0806 96.4805)"><tspan x="0" y="0" fill="#006533" font-family="'Interstate-RegularCompressed'" font-size="18">Mo</tspan><tspan x="14.868" y="0" fill="#006533" font-family="'Interstate-RegularCompressed'" font-size="18">n</tspan><tspan x="20.934" y="0" fill="#006533" font-family="'Interstate-RegularCompressed'" font-size="18"> </tspan></text>
<rect x="199.44" y="72.48" fill="#FFFFFF" width="99.72" height="28.86"/>
<text transform="matrix(1 0 0 1 240.6001 96.48)"><tspan x="0" y="0" fill="#006533" font-family="'Interstate-RegularCompressed'" font-size="18">T</tspan><tspan x="5.238" y="0" fill="#006533" font-family="'Interstate-RegularCompressed'" font-size="18">u</tspan><tspan x="11.375" y="0" fill="#006533" font-family="'Interstate-RegularCompressed'" font-size="18">e</tspan><tspan x="17.315" y="0" fill="#006533" font-family="'Interstate-RegularCompressed'" font-size="18"> </tspan></text>
<rect x="299.16" y="72.48" fill="#FFFFFF" width="99.721" height="28.86"/>
<text transform="matrix(1 0 0 1 338.8809 96.4795)"><tspan x="0" y="0" fill="#006533" font-family="'Interstate-RegularCompressed'" font-size="18">W</tspan><tspan x="7.991" y="0" fill="#006533" font-family="'Interstate-RegularCompressed'" font-size="18">e</tspan><tspan x="13.913" y="0" fill="#006533" font-family="'Interstate-RegularCompressed'" font-size="18">d</tspan><tspan x="20.213" y="0" fill="#006533" font-family="'Interstate-RegularCompressed'" font-size="18"> </tspan></text>
<rect x="398.881" y="72.48" fill="#FFFFFF" width="99" height="28.86"/>
<text transform="matrix(1 0 0 1 439.3809 96.48)"><tspan x="0" y="0" fill="#006533" font-family="'Interstate-RegularCompressed'" font-size="18">Thu</tspan><tspan x="18.018" y="0" fill="#006533" font-family="'Interstate-RegularCompressed'" font-size="18"> </tspan></text>
<rect x="497.881" y="72.48" fill="#FFFFFF" width="99.359" height="28.86"/>
<text transform="matrix(1 0 0 1 540.9004 96.48)"><tspan x="0" y="0" fill="#006533" font-family="'Interstate-RegularCompressed'" font-size="18">F</tspan><tspan x="5.473" y="0" fill="#006533" font-family="'Interstate-RegularCompressed'" font-size="18">r</tspan><tspan x="10.08" y="0" fill="#006533" font-family="'Interstate-RegularCompressed'" font-size="18">i</tspan><tspan x="13.32" y="0" fill="#006533" font-family="'Interstate-RegularCompressed'" font-size="18"> </tspan></text>
<rect x="597.24" y="72.48" fill="#FFFFFF" width="99.721" height="28.86"/>
<text transform="matrix(1 0 0 1 638.2793 96.4805)"><tspan x="0" y="0" fill="#006533" font-family="'Interstate-RegularCompressed'" font-size="18">S</tspan><tspan x="6.156" y="0" fill="#006533" font-family="'Interstate-RegularCompressed'" font-size="18">a</tspan><tspan x="12.078" y="0" fill="#006533" font-family="'Interstate-RegularCompressed'" font-size="18">t</tspan><tspan x="16.506" y="0" fill="#006533" font-family="'Interstate-RegularCompressed'" font-size="18"> </tspan></text>
<rect y="101.34" fill="#FFFFFF" width="99.721" height="68.94"/>
<text transform="matrix(1 0 0 1 7.9805 116.8799)" fill="#006533" font-family="'Interstate-RegularCompressed'" font-size="11.04"> </text>
<rect x="99.721" y="101.34" fill="#FFFFFF" width="99.72" height="68.94"/>
<text transform="matrix(1 0 0 1 106.5605 116.8799)" fill="#006533" font-family="'Interstate-RegularCompressed'" font-size="11.04"> </text>
<rect x="199.44" y="101.34" fill="#FFFFFF" width="99.72" height="68.94"/>
<text transform="matrix(1 0 0 1 206.2793 116.8804)" fill="#006533" font-family="'Interstate-RegularCompressed'" font-size="11.04"> </text>
<rect x="299.16" y="101.34" fill="#FFFFFF" width="99.721" height="68.94"/>
<text transform="matrix(1 0 0 1 306 116.8804)" fill="#006533" font-family="'Interstate-RegularCompressed'" font-size="11.04"> </text>
<rect x="398.881" y="101.34" fill="#FFFFFF" width="99" height="68.94"/>
<text transform="matrix(1 0 0 1 405.7207 116.8799)" fill="#006533" font-family="'Interstate-RegularCompressed'" font-size="11.04"> </text>
<rect x="497.881" y="101.34" fill="#FFFFFF" width="99.359" height="68.94"/>
<text transform="matrix(1 0 0 1 504.7803 116.8804)"><tspan x="0" y="0" fill="#006533" font-family="'Interstate-RegularCompressed'" font-size="11.04">1</tspan><tspan x="2.639" y="0" fill="#006533" font-family="'Interstate-RegularCompressed'" font-size="11.04"> </tspan></text>
<rect x="597.24" y="101.34" fill="#FFFFFF" width="99.721" height="68.94"/>
<text transform="matrix(1 0 0 1 604.0801 116.8799)" fill="#006533" font-family="'Interstate-RegularCompressed'" font-size="11.04">2 </text>
<rect y="170.28" fill="#FFFFFF" width="99.721" height="69"/>
<text transform="matrix(1 0 0 1 7.9805 185.8799)" fill="#006533" font-family="'Interstate-RegularCompressed'" font-size="11.04">3 </text>
<rect x="99.721" y="170.28" fill="#FFFFFF" width="99.72" height="69"/>
<text transform="matrix(1 0 0 1 106.5605 185.8799)"><tspan x="0" y="0" fill="#006533" font-family="'Interstate-RegularCompressed'" font-size="11.04">4</tspan><tspan x="3.775" y="0" fill="#006533" font-family="'Interstate-RegularCompressed'" font-size="11.04"> </tspan></text>
<rect x="199.44" y="170.28" fill="#FFFFFF" width="99.72" height="69"/>
<text transform="matrix(1 0 0 1 206.2793 185.8804)" fill="#006533" font-family="'Interstate-RegularCompressed'" font-size="11.04">5 </text>
<rect x="299.16" y="170.28" fill="#FFFFFF" width="99.721" height="69"/>
<text transform="matrix(1 0 0 1 306 185.8804)" fill="#006533" font-family="'Interstate-RegularCompressed'" font-size="11.04">6 </text>
<rect x="398.881" y="170.28" fill="#FFFFFF" width="99" height="69"/>
<text transform="matrix(1 0 0 1 405.7207 185.8799)"><tspan x="0" y="0" fill="#006533" font-family="'Interstate-RegularCompressed'" font-size="11.04">7</tspan><tspan x="3.721" y="0" fill="#006533" font-family="'Interstate-RegularCompressed'" font-size="11.04"> </tspan></text>
<rect x="497.881" y="170.28" fill="#FFFFFF" width="99.359" height="69"/>
<text transform="matrix(1 0 0 1 504.7803 185.8804)" fill="#006533" font-family="'Interstate-RegularCompressed'" font-size="11.04">8 </text>
<rect x="597.24" y="170.28" fill="#FFFFFF" width="99.721" height="69"/>
<text transform="matrix(1 0 0 1 604.0801 185.8799)" fill="#006533" font-family="'Interstate-RegularCompressed'" font-size="11.04">9 </text>
<rect y="239.28" fill="#FFFFFF" width="99.721" height="68.46"/>
<text transform="matrix(1 0 0 1 7.9814 254.8203)"><tspan x="0" y="0" fill="#006533" font-family="'Interstate-RegularCompressed'" font-size="11.04">10</tspan><tspan x="6.602" y="0" fill="#006533" font-family="'Interstate-RegularCompressed'" font-size="11.04"> </tspan></text>
<rect x="99.721" y="239.28" fill="#FFFFFF" width="99.72" height="68.46"/>
<text transform="matrix(1 0 0 1 106.5596 254.8203)"><tspan x="0" y="0" fill="#006533" font-family="'Interstate-RegularCompressed'" font-size="11.04">1</tspan><tspan x="2.639" y="0" fill="#006533" font-family="'Interstate-RegularCompressed'" font-size="11.04">1</tspan><tspan x="5.222" y="0" fill="#006533" font-family="'Interstate-RegularCompressed'" font-size="11.04"> </tspan></text>
<rect x="199.44" y="239.28" fill="#FFFFFF" width="99.72" height="68.46"/>
<text transform="matrix(1 0 0 1 206.2803 254.8203)" fill="#006533" font-family="'Interstate-RegularCompressed'" font-size="11.04">12 </text>
<rect x="299.16" y="239.28" fill="#FFFFFF" width="99.721" height="68.46"/>
<text transform="matrix(1 0 0 1 306.001 254.8203)" fill="#006533" font-family="'Interstate-RegularCompressed'" font-size="11.04">13 </text>
<rect x="398.881" y="239.28" fill="#FFFFFF" width="99" height="68.46"/>
<text transform="matrix(1 0 0 1 405.7207 254.8198)"><tspan x="0" y="0" fill="#006533" font-family="'Interstate-RegularCompressed'" font-size="11.04">1</tspan><tspan x="2.639" y="0" fill="#006533" font-family="'Interstate-RegularCompressed'" font-size="11.04">4</tspan><tspan x="6.37" y="0" fill="#006533" font-family="'Interstate-RegularCompressed'" font-size="11.04"> </tspan></text>
<rect x="497.881" y="239.28" fill="#FFFFFF" width="99.359" height="68.46"/>
<text transform="matrix(1 0 0 1 504.7803 254.8203)" fill="#006533" font-family="'Interstate-RegularCompressed'" font-size="11.04">15 </text>
<rect x="597.24" y="239.28" fill="#FFFFFF" width="99.721" height="68.46"/>
<text transform="matrix(1 0 0 1 604.0811 254.8198)" fill="#006533" font-family="'Interstate-RegularCompressed'" font-size="11.04">16 </text>
<rect y="307.74" fill="#FFFFFF" width="99.721" height="68.939"/>
<text transform="matrix(1 0 0 1 7.9805 323.2803)" fill="#006533" font-family="'Interstate-RegularCompressed'" font-size="11.04">17 </text>
<rect x="99.721" y="307.74" fill="#FFFFFF" width="99.72" height="68.939"/>
<text transform="matrix(1 0 0 1 106.5605 323.2803)" fill="#006533" font-family="'Interstate-RegularCompressed'" font-size="11.04">18 </text>
<rect x="199.44" y="307.74" fill="#FFFFFF" width="99.72" height="68.939"/>
<text transform="matrix(1 0 0 1 206.2813 323.2803)" fill="#006533" font-family="'Interstate-RegularCompressed'" font-size="11.04">19 </text>
<rect x="299.16" y="307.74" fill="#FFFFFF" width="99.721" height="68.939"/>
<text transform="matrix(1 0 0 1 306 323.2803)" fill="#006533" font-family="'Interstate-RegularCompressed'" font-size="11.04">20 </text>
<rect x="398.881" y="307.74" fill="#FFFFFF" width="99" height="68.939"/>
<text transform="matrix(1 0 0 1 405.7207 323.2803)" fill="#006533" font-family="'Interstate-RegularCompressed'" font-size="11.04">21 </text>
<rect x="497.881" y="307.74" fill="#FFFFFF" width="99.359" height="68.939"/>
<text transform="matrix(1 0 0 1 504.7813 323.2803)" fill="#006533" font-family="'Interstate-RegularCompressed'" font-size="11.04">22 </text>
<rect x="597.24" y="307.74" fill="#FFFFFF" width="99.721" height="68.939"/>
<text transform="matrix(1 0 0 1 604.0801 323.2803)" fill="#006533" font-family="'Interstate-RegularCompressed'" font-size="11.04">23 </text>
<rect y="376.68" fill="#FFFFFF" width="99.721" height="69"/>
<text transform="matrix(1 0 0 1 7.9805 392.2197)" fill="#006533" font-family="'Interstate-RegularCompressed'" font-size="11.04">24 </text>
<rect x="99.721" y="376.68" fill="#FFFFFF" width="99.72" height="69"/>
<text transform="matrix(1 0 0 1 106.5605 392.2197)" fill="#006533" font-family="'Interstate-RegularCompressed'" font-size="11.04">25 </text>
<text transform="matrix(1 0 0 1 150.9609 408.4795)" fill="#006533" font-family="'Interstate-RegularCompressed'" font-size="11.04"> </text>
<text transform="matrix(1 0 0 1 120.4199 430.0195)"><tspan x="0" y="0" fill="#006533" font-family="'Interstate-RegularCompressed'" font-size="16.02">Memorial</tspan><tspan x="41.716" y="0" fill="#006533" font-family="'Interstate-RegularCompressed'" font-size="16.02"> </tspan><tspan x="44.663" y="0" fill="#006533" font-family="'Interstate-RegularCompressed'" font-size="16.02">D</tspan><tspan x="50.734" y="0" fill="#006533" font-family="'Interstate-RegularCompressed'" font-size="16.02">a</tspan><tspan x="55.909" y="0" fill="#006533" font-family="'Interstate-RegularCompressed'" font-size="16.02">y </tspan></text>
<rect x="199.44" y="376.68" fill="#FFFFFF" width="99.72" height="69"/>
<text transform="matrix(1 0 0 1 206.2793 392.2197)" fill="#006533" font-family="'Interstate-RegularCompressed'" font-size="11.04">26 </text>
<rect x="299.16" y="376.68" fill="#FFFFFF" width="99.721" height="69"/>
<text transform="matrix(1 0 0 1 306 392.2207)" fill="#006533" font-family="'Interstate-RegularCompressed'" font-size="11.04">27 </text>
<rect x="398.881" y="376.68" fill="#FFFFFF" width="99" height="69"/>
<text transform="matrix(1 0 0 1 405.7207 392.2197)" fill="#006533" font-family="'Interstate-RegularCompressed'" font-size="11.04">28 </text>
<rect x="497.881" y="376.68" fill="#FFFFFF" width="99.359" height="69"/>
<text transform="matrix(1 0 0 1 504.7803 392.2197)" fill="#006533" font-family="'Interstate-RegularCompressed'" font-size="11.04">29 </text>
<rect x="597.24" y="376.68" fill="#FFFFFF" width="99.721" height="69"/>
<text transform="matrix(1 0 0 1 604.0801 392.2197)"><tspan x="0" y="0" fill="#006533" font-family="'Interstate-RegularCompressed'" font-size="11.04">30</tspan><tspan x="7.86" y="0" fill="#006533" font-family="'Interstate-RegularCompressed'" font-size="11.04"> </tspan></text>
<rect y="445.68" fill="#FFFFFF" width="99.721" height="68.94"/>
<text transform="matrix(1 0 0 1 7.9805 461.2197)" fill="#006533" font-family="'Interstate-RegularCompressed'" font-size="11.04">31 </text>
<rect x="99.721" y="445.68" fill="#FFFFFF" width="99.72" height="68.94"/>
<text transform="matrix(1 0 0 1 106.5605 461.2197)" fill="#006533" font-family="'Interstate-RegularCompressed'" font-size="11.04"> </text>
<rect x="199.44" y="445.68" fill="#FFFFFF" width="99.72" height="68.94"/>
<text transform="matrix(1 0 0 1 206.2793 461.2197)" fill="#006533" font-family="'Interstate-RegularCompressed'" font-size="11.04"> </text>
<rect x="299.16" y="445.68" fill="#FFFFFF" width="99.721" height="68.94"/>
<text transform="matrix(1 0 0 1 306 461.2207)" fill="#006533" font-family="'Interstate-RegularCompressed'" font-size="11.04"> </text>
<rect x="398.881" y="445.68" fill="#FFFFFF" width="99" height="68.94"/>
<text transform="matrix(1 0 0 1 405.7207 461.2197)" fill="#006533" font-family="'Interstate-RegularCompressed'" font-size="11.04"> </text>
<rect x="497.881" y="445.68" fill="#FFFFFF" width="99.359" height="68.94"/>
<text transform="matrix(1 0 0 1 504.7793 461.2197)" fill="#006533" font-family="'Interstate-RegularCompressed'" font-size="11.04"> </text>
<rect x="597.24" y="445.68" fill="#FFFFFF" width="99.721" height="68.94"/>
<text transform="matrix(1 0 0 1 604.0801 461.2197)" fill="#006533" font-family="'Interstate-RegularCompressed'" font-size="11.04"> </text>
<rect y="72.48" fill="#D9D9D9" width="2.28" height="439.86"/>
<rect x="98.58" y="74.76" fill="#D9D9D9" width="2.28" height="437.58"/>
<rect x="198.301" y="74.76" fill="#D9D9D9" width="2.279" height="437.58"/>
<rect x="298.021" y="74.76" fill="#D9D9D9" width="2.28" height="437.58"/>
<rect x="397.74" y="74.76" fill="#D9D9D9" width="2.28" height="437.58"/>
<rect x="496.801" y="74.76" fill="#D9D9D9" width="2.279" height="437.58"/>
<rect x="596.101" y="74.76" fill="#D9D9D9" width="2.28" height="437.58"/>
<rect x="694.681" y="72.48" fill="#D9D9D9" width="2.28" height="439.86"/>
<rect y="72.48" fill="#D9D9D9" width="696.961" height="2.28"/>
<rect x="2.221" y="100.2" fill="#D9D9D9" width="692.46" height="2.28"/>
<rect x="2.221" y="169.2" fill="#D9D9D9" width="692.46" height="2.28"/>
<rect x="2.221" y="238.14" fill="#D9D9D9" width="692.46" height="2.28"/>
<rect x="2.221" y="306.601" fill="#D9D9D9" width="692.46" height="2.279"/>
<rect x="2.221" y="375.54" fill="#D9D9D9" width="692.46" height="2.28"/>
<rect x="2.221" y="444.54" fill="#D9D9D9" width="692.46" height="2.28"/>
<rect y="512.34" fill="#D9D9D9" width="696.961" height="2.28"/>
<rect fill="#FFFFFF" width="696.961" height="72"/>
<text transform="matrix(1 0 0 1 254.7007 45.8403)" fill="#006533" font-family="'BerlinSansFB-Reg'" font-size="48">May 2015 </text>
</svg>
